G75*
%MOIN*%
%OFA0B0*%
%FSLAX25Y25*%
%IPPOS*%
%LPD*%
%AMOC8*
5,1,8,0,0,1.08239X$1,22.5*
%
%ADD10OC8,0.06000*%
%ADD11R,0.08674X0.07099*%
%ADD12C,0.06800*%
%ADD13C,0.09855*%
%ADD14C,0.06800*%
%ADD15OC8,0.08400*%
%ADD16OC8,0.06800*%
%ADD17R,0.07099X0.08674*%
%ADD18C,0.07800*%
%ADD19C,0.14580*%
%ADD20C,0.05950*%
%ADD21C,0.04762*%
D10*
X0188976Y0186948D03*
X0198976Y0186948D03*
D11*
X0143780Y0167696D03*
X0143780Y0156673D03*
X0130984Y0156673D03*
X0130984Y0167696D03*
D12*
X0030633Y0037143D02*
X0024633Y0037143D01*
X0024633Y0054943D02*
X0030633Y0054943D01*
X0050233Y0054943D02*
X0056233Y0054943D01*
X0056233Y0037143D02*
X0050233Y0037143D01*
X0082709Y0038582D02*
X0088709Y0038582D01*
X0096488Y0038582D02*
X0102488Y0038582D01*
X0109776Y0038582D02*
X0115776Y0038582D01*
X0115776Y0048582D02*
X0109776Y0048582D01*
X0102488Y0048582D02*
X0096488Y0048582D01*
X0088709Y0048582D02*
X0082709Y0048582D01*
X0044417Y0118562D02*
X0038417Y0118562D01*
X0038417Y0128562D02*
X0044417Y0128562D01*
X0044417Y0138562D02*
X0038417Y0138562D01*
X0038417Y0148562D02*
X0044417Y0148562D01*
X0044417Y0158562D02*
X0038417Y0158562D01*
X0193929Y0162342D02*
X0199929Y0162342D01*
X0199929Y0172342D02*
X0193929Y0172342D01*
X0193929Y0152342D02*
X0199929Y0152342D01*
X0199929Y0142342D02*
X0193929Y0142342D01*
X0193929Y0132342D02*
X0199929Y0132342D01*
X0199929Y0121082D02*
X0193929Y0121082D01*
X0193929Y0111082D02*
X0199929Y0111082D01*
X0199929Y0101082D02*
X0193929Y0101082D01*
X0193929Y0091082D02*
X0199929Y0091082D01*
X0199929Y0050058D02*
X0193929Y0050058D01*
X0193929Y0040058D02*
X0199929Y0040058D01*
D13*
X0188465Y0223484D03*
X0136732Y0223484D03*
X0078740Y0223484D03*
X0027008Y0223484D03*
D14*
X0107205Y0071554D03*
X0196929Y0070649D03*
X0196929Y0080649D03*
X0196929Y0060649D03*
D15*
X0168386Y0047027D03*
D16*
X0127205Y0071554D03*
X0127205Y0081554D03*
X0117205Y0081554D03*
X0117205Y0071554D03*
X0107205Y0081554D03*
D17*
X0087283Y0077539D03*
X0076260Y0077539D03*
X0076260Y0090334D03*
X0087283Y0090334D03*
X0087283Y0105098D03*
X0076260Y0105098D03*
D18*
X0066102Y0103877D03*
X0066102Y0093877D03*
X0066102Y0083877D03*
X0066102Y0073877D03*
X0066102Y0063877D03*
X0066102Y0113877D03*
D19*
X0014843Y0039940D03*
X0180591Y0317696D03*
D20*
X0017417Y0188759D02*
X0012268Y0188759D01*
X0012268Y0178759D02*
X0017417Y0178759D01*
X0017417Y0168759D02*
X0012268Y0168759D01*
X0012268Y0158759D02*
X0017417Y0158759D01*
X0017417Y0148759D02*
X0012268Y0148759D01*
X0012268Y0138759D02*
X0017417Y0138759D01*
X0017417Y0122027D02*
X0012268Y0122027D01*
X0012268Y0112027D02*
X0017417Y0112027D01*
X0017417Y0102027D02*
X0012268Y0102027D01*
X0012268Y0092027D02*
X0017417Y0092027D01*
X0017417Y0082027D02*
X0012268Y0082027D01*
X0012268Y0072027D02*
X0017417Y0072027D01*
X0017417Y0062027D02*
X0012268Y0062027D01*
X0012268Y0052027D02*
X0017417Y0052027D01*
D21*
X0035512Y0079015D03*
X0031575Y0088858D03*
X0067992Y0129704D03*
X0072913Y0126751D03*
X0087185Y0119369D03*
X0086693Y0143484D03*
X0093091Y0147913D03*
X0110315Y0158247D03*
X0116220Y0154310D03*
X0127047Y0147421D03*
X0132953Y0147421D03*
X0138858Y0147421D03*
X0144764Y0147421D03*
X0142795Y0131673D03*
X0142795Y0121830D03*
X0142795Y0115925D03*
X0134921Y0115925D03*
X0125079Y0107066D03*
X0138858Y0096239D03*
X0142795Y0102145D03*
X0170354Y0135610D03*
X0172323Y0111003D03*
X0174291Y0106082D03*
X0189055Y0126751D03*
X0184134Y0167106D03*
X0182165Y0173995D03*
X0171339Y0174980D03*
X0165433Y0174980D03*
X0187087Y0203523D03*
X0141811Y0203523D03*
X0070945Y0184330D03*
X0067008Y0171043D03*
X0064055Y0166121D03*
X0039449Y0193188D03*
X0031083Y0159724D03*
X0094399Y0090334D03*
X0094567Y0077539D03*
X0176260Y0055885D03*
X0181181Y0062775D03*
M02*
