G75*
%MOIN*%
%OFA0B0*%
%FSLAX25Y25*%
%IPPOS*%
%LPD*%
%AMOC8*
5,1,8,0,0,1.08239X$1,22.5*
%
%ADD10C,0.00600*%
%ADD11C,0.00400*%
%ADD12R,0.07200X0.02300*%
%ADD13R,0.02300X0.07200*%
%ADD14C,0.00500*%
%ADD15C,0.00512*%
D10*
X0077272Y0074239D02*
X0086272Y0074239D01*
X0086272Y0080839D02*
X0077272Y0080839D01*
X0077272Y0087034D02*
X0086272Y0087034D01*
X0086272Y0093634D02*
X0077272Y0093634D01*
X0077272Y0101798D02*
X0086272Y0101798D01*
X0086272Y0108398D02*
X0077272Y0108398D01*
X0127684Y0157684D02*
X0127684Y0166684D01*
X0134284Y0166684D02*
X0134284Y0157684D01*
X0140480Y0157684D02*
X0140480Y0166684D01*
X0147080Y0166684D02*
X0147080Y0157684D01*
D11*
X0138583Y0155875D02*
X0138583Y0153573D01*
X0133980Y0153573D01*
X0135514Y0153573D02*
X0135514Y0155875D01*
X0136281Y0156642D01*
X0137816Y0156642D01*
X0138583Y0155875D01*
X0137049Y0158177D02*
X0138583Y0159711D01*
X0133980Y0159711D01*
X0133980Y0158177D02*
X0133980Y0161246D01*
X0134747Y0162780D02*
X0133980Y0163548D01*
X0133980Y0165082D01*
X0134747Y0165850D01*
X0135514Y0165850D01*
X0136281Y0165082D01*
X0136281Y0164315D01*
X0136281Y0165082D02*
X0137049Y0165850D01*
X0137816Y0165850D01*
X0138583Y0165082D01*
X0138583Y0163548D01*
X0137816Y0162780D01*
X0133980Y0156642D02*
X0135514Y0155107D01*
X0125788Y0155875D02*
X0125788Y0153573D01*
X0121184Y0153573D01*
X0122719Y0153573D02*
X0122719Y0155875D01*
X0123486Y0156642D01*
X0125021Y0156642D01*
X0125788Y0155875D01*
X0124254Y0158177D02*
X0125788Y0159711D01*
X0121184Y0159711D01*
X0121184Y0158177D02*
X0121184Y0161246D01*
X0123486Y0162780D02*
X0123486Y0165850D01*
X0121184Y0165082D02*
X0125788Y0165082D01*
X0123486Y0162780D01*
X0121184Y0156642D02*
X0122719Y0155107D01*
X0085780Y0099902D02*
X0083478Y0099902D01*
X0082710Y0099134D01*
X0082710Y0097600D01*
X0083478Y0096832D01*
X0085780Y0096832D01*
X0085780Y0095298D02*
X0085780Y0099902D01*
X0084245Y0096832D02*
X0082710Y0095298D01*
X0081176Y0097600D02*
X0078106Y0097600D01*
X0078874Y0095298D02*
X0078874Y0099902D01*
X0081176Y0097600D01*
X0080408Y0085138D02*
X0081176Y0084371D01*
X0080408Y0085138D02*
X0078874Y0085138D01*
X0078106Y0084371D01*
X0078106Y0083603D01*
X0081176Y0080534D01*
X0078106Y0080534D01*
X0082710Y0080534D02*
X0084245Y0082069D01*
X0083478Y0082069D02*
X0085780Y0082069D01*
X0085780Y0080534D02*
X0085780Y0085138D01*
X0083478Y0085138D01*
X0082710Y0084371D01*
X0082710Y0082836D01*
X0083478Y0082069D01*
X0083478Y0072343D02*
X0082710Y0071575D01*
X0082710Y0070041D01*
X0083478Y0069273D01*
X0085780Y0069273D01*
X0085780Y0067739D02*
X0085780Y0072343D01*
X0083478Y0072343D01*
X0081176Y0070808D02*
X0079641Y0072343D01*
X0079641Y0067739D01*
X0081176Y0067739D02*
X0078106Y0067739D01*
X0082710Y0067739D02*
X0084245Y0069273D01*
X0099392Y0007471D02*
X0098625Y0006703D01*
X0101694Y0003634D01*
X0100927Y0002867D01*
X0099392Y0002867D01*
X0098625Y0003634D01*
X0098625Y0006703D01*
X0099392Y0007471D02*
X0100927Y0007471D01*
X0101694Y0006703D01*
X0101694Y0003634D01*
X0103229Y0005169D02*
X0106298Y0005169D01*
X0103996Y0007471D01*
X0103996Y0002867D01*
X0107833Y0002867D02*
X0108600Y0002867D01*
X0108600Y0003634D01*
X0107833Y0003634D01*
X0107833Y0002867D01*
X0110135Y0002867D02*
X0113204Y0002867D01*
X0111670Y0002867D02*
X0111670Y0007471D01*
X0113204Y0005936D01*
X0114739Y0005169D02*
X0114739Y0003634D01*
X0115506Y0002867D01*
X0117041Y0002867D01*
X0117808Y0003634D01*
X0117808Y0005169D02*
X0116273Y0005936D01*
X0115506Y0005936D01*
X0114739Y0005169D01*
X0114739Y0007471D02*
X0117808Y0007471D01*
X0117808Y0005169D01*
X0223497Y0171210D02*
X0224265Y0171210D01*
X0227334Y0174279D01*
X0228101Y0174279D01*
X0228101Y0171210D01*
X0225799Y0175814D02*
X0225799Y0178116D01*
X0225032Y0178883D01*
X0224265Y0178883D01*
X0223497Y0178116D01*
X0223497Y0176581D01*
X0224265Y0175814D01*
X0225799Y0175814D01*
X0227334Y0177349D01*
X0228101Y0178883D01*
X0227334Y0182720D02*
X0224265Y0182720D01*
X0227334Y0185789D01*
X0224265Y0185789D01*
X0223497Y0185022D01*
X0223497Y0183487D01*
X0224265Y0182720D01*
X0224265Y0181185D02*
X0223497Y0181185D01*
X0223497Y0180418D01*
X0224265Y0180418D01*
X0224265Y0181185D01*
X0227334Y0182720D02*
X0228101Y0183487D01*
X0228101Y0185022D01*
X0227334Y0185789D01*
X0227334Y0187324D02*
X0228101Y0188091D01*
X0228101Y0189626D01*
X0227334Y0190393D01*
X0224265Y0187324D01*
X0223497Y0188091D01*
X0223497Y0189626D01*
X0224265Y0190393D01*
X0227334Y0190393D01*
X0227334Y0187324D02*
X0224265Y0187324D01*
D12*
X0143780Y0167734D03*
X0143780Y0156634D03*
X0130984Y0156634D03*
X0130984Y0167734D03*
D13*
X0087322Y0105098D03*
X0076222Y0105098D03*
X0076222Y0090334D03*
X0087322Y0090334D03*
X0087322Y0077539D03*
X0076222Y0077539D03*
D14*
X0005000Y0030295D02*
X0005000Y0329507D01*
X0207362Y0329507D01*
X0207362Y0030295D01*
X0005000Y0030295D01*
D15*
X0005000Y0001751D01*
X0005256Y0009428D02*
X0015236Y0010452D01*
X0015236Y0010685D02*
X0005256Y0009428D01*
X0015236Y0008405D01*
X0015236Y0008172D02*
X0015236Y0010685D01*
X0015236Y0009940D02*
X0005256Y0009428D01*
X0015236Y0008917D01*
X0015236Y0008172D02*
X0005256Y0009428D01*
X0207106Y0009428D01*
X0197126Y0010452D01*
X0197126Y0010685D02*
X0207106Y0009428D01*
X0197126Y0008405D01*
X0197126Y0008172D02*
X0197126Y0010685D01*
X0197126Y0009940D02*
X0207106Y0009428D01*
X0197126Y0008917D01*
X0197126Y0008172D02*
X0207106Y0009428D01*
X0207362Y0001751D02*
X0207362Y0030295D01*
X0229213Y0030295D01*
X0221535Y0030551D02*
X0222559Y0040531D01*
X0222792Y0040531D02*
X0220279Y0040531D01*
X0221535Y0030551D01*
X0220512Y0040531D01*
X0221024Y0040531D02*
X0221535Y0030551D01*
X0222047Y0040531D01*
X0222792Y0040531D02*
X0221535Y0030551D01*
X0221535Y0329251D01*
X0220512Y0319271D01*
X0220279Y0319271D02*
X0221535Y0329251D01*
X0222559Y0319271D01*
X0222792Y0319271D02*
X0220279Y0319271D01*
X0221024Y0319271D02*
X0221535Y0329251D01*
X0222047Y0319271D01*
X0222792Y0319271D02*
X0221535Y0329251D01*
X0229213Y0329507D02*
X0207362Y0329507D01*
M02*
