%
M48
M72
T01C0.02362
T02C0.03150
T03C0.03200
T04C0.03937
T05C0.04000
T06C0.09055
T07C0.13780
%
T01
X35512Y79015
X31575Y88858
X67992Y129704
X72913Y126751
X87185Y119369
X86693Y143484
X93091Y147913
X110315Y158247
X116220Y154310
X127047Y147421
X132953Y147421
X138858Y147421
X144764Y147421
X142795Y131673
X142795Y121830
X142795Y115925
X134921Y115925
X125079Y107066
X138858Y96239
X142795Y102145
X170354Y135610
X172323Y111003
X174291Y106082
X189055Y126751
X184134Y167106
X182165Y173995
X171339Y174980
X165433Y174980
X187087Y203523
X141811Y203523
X70945Y184330
X67008Y171043
X64055Y166121
X39449Y193188
X31083Y159724
X94399Y90334
X94567Y77539
X176260Y55885
X181181Y62775
T02
X14843Y62027
X14843Y72027
X14843Y82027
X14843Y92027
X14843Y102027
X14843Y112027
X14843Y122027
X14843Y138759
X14843Y148759
X14843Y158759
X14843Y168759
X14843Y178759
X14843Y188759
X14843Y52027
T03
X188976Y186948
X198976Y186948
T04
X66102Y113877
X66102Y103877
X66102Y93877
X66102Y83877
X66102Y73877
X66102Y63877
T05
X27633Y37143
X27633Y54943
X53233Y54943
X53233Y37143
X85709Y38582
X85709Y48582
X99488Y48582
X99488Y38582
X112776Y38582
X112776Y48582
X117205Y71554
X117205Y81554
X107205Y81554
X107205Y71554
X127205Y71554
X127205Y81554
X168386Y47027
X196929Y50058
X196929Y40058
X196929Y60649
X196929Y70649
X196929Y80649
X196929Y91082
X196929Y101082
X196929Y111082
X196929Y121082
X196929Y132342
X196929Y142342
X196929Y152342
X196929Y162342
X196929Y172342
X41417Y158562
X41417Y148562
X41417Y138562
X41417Y128562
X41417Y118562
T06
X27008Y223484
X78740Y223484
X136732Y223484
X188465Y223484
T07
X14843Y39940
M30
