G75*
%MOIN*%
%OFA0B0*%
%FSLAX25Y25*%
%IPPOS*%
%LPD*%
%AMOC8*
5,1,8,0,0,1.08239X$1,22.5*
%
%ADD10R,0.07800X0.20800*%
%ADD11R,0.07887X0.07099*%
%ADD12R,0.07099X0.07887*%
%ADD13R,0.06312X0.06312*%
%ADD14R,0.09461X0.03162*%
%ADD15OC8,0.06000*%
%ADD16R,0.07099X0.08674*%
%ADD17R,0.04737X0.04343*%
%ADD18R,0.05131X0.04343*%
%ADD19R,0.03300X0.06800*%
%ADD20C,0.06800*%
%ADD21R,0.05209X0.16548*%
%ADD22C,0.09855*%
%ADD23C,0.06800*%
%ADD24OC8,0.08400*%
%ADD25R,0.03000X0.05800*%
%ADD26R,0.05800X0.03000*%
%ADD27OC8,0.06800*%
%ADD28C,0.07800*%
%ADD29C,0.14580*%
%ADD30C,0.05950*%
%ADD31R,0.06312X0.04737*%
%ADD32R,0.04737X0.06312*%
%ADD33R,0.08674X0.07099*%
%ADD34C,0.04762*%
D10*
X0096535Y0171728D03*
X0118189Y0171728D03*
X0118189Y0209728D03*
X0096535Y0209728D03*
D11*
X0080787Y0199192D03*
X0080787Y0188169D03*
X0080787Y0177539D03*
X0080787Y0166515D03*
X0134921Y0166515D03*
X0134921Y0177539D03*
X0134921Y0188169D03*
X0134921Y0199192D03*
X0129016Y0049586D03*
X0129016Y0038562D03*
D12*
X0122717Y0093287D03*
X0111693Y0093287D03*
X0065630Y0192696D03*
X0054606Y0192696D03*
X0166811Y0193680D03*
X0177835Y0193680D03*
D13*
X0114843Y0235019D03*
X0099882Y0235019D03*
D14*
X0145354Y0070275D03*
X0145354Y0065275D03*
X0145354Y0060275D03*
X0145354Y0055275D03*
X0165827Y0055275D03*
X0165827Y0060275D03*
X0165827Y0065275D03*
X0165827Y0070275D03*
D15*
X0188976Y0186948D03*
X0198976Y0186948D03*
D16*
X0183740Y0145452D03*
X0172717Y0145452D03*
X0163071Y0145452D03*
X0163071Y0131673D03*
X0163071Y0118877D03*
X0163071Y0106082D03*
X0163071Y0093287D03*
X0163071Y0080491D03*
X0152047Y0080491D03*
X0152047Y0093287D03*
X0152047Y0106082D03*
X0152047Y0118877D03*
X0152047Y0131673D03*
X0152047Y0145452D03*
X0172717Y0118877D03*
X0183740Y0118877D03*
D17*
X0180591Y0096830D03*
X0173898Y0096830D03*
D18*
X0177244Y0083838D03*
D19*
X0178012Y0163385D03*
X0173012Y0163385D03*
X0168012Y0163385D03*
X0163012Y0163385D03*
X0158012Y0163385D03*
X0153012Y0163385D03*
X0148012Y0163385D03*
X0143012Y0163385D03*
X0143012Y0184606D03*
X0148012Y0184606D03*
X0153012Y0184606D03*
X0158012Y0184606D03*
X0163012Y0184606D03*
X0168012Y0184606D03*
X0173012Y0184606D03*
X0178012Y0184606D03*
D20*
X0030633Y0037143D02*
X0024633Y0037143D01*
X0024633Y0054943D02*
X0030633Y0054943D01*
X0050233Y0054943D02*
X0056233Y0054943D01*
X0056233Y0037143D02*
X0050233Y0037143D01*
X0082709Y0038582D02*
X0088709Y0038582D01*
X0096488Y0038582D02*
X0102488Y0038582D01*
X0109776Y0038582D02*
X0115776Y0038582D01*
X0115776Y0048582D02*
X0109776Y0048582D01*
X0102488Y0048582D02*
X0096488Y0048582D01*
X0088709Y0048582D02*
X0082709Y0048582D01*
X0044417Y0118562D02*
X0038417Y0118562D01*
X0038417Y0128562D02*
X0044417Y0128562D01*
X0044417Y0138562D02*
X0038417Y0138562D01*
X0038417Y0148562D02*
X0044417Y0148562D01*
X0044417Y0158562D02*
X0038417Y0158562D01*
X0193929Y0162342D02*
X0199929Y0162342D01*
X0199929Y0172342D02*
X0193929Y0172342D01*
X0193929Y0152342D02*
X0199929Y0152342D01*
X0199929Y0142342D02*
X0193929Y0142342D01*
X0193929Y0132342D02*
X0199929Y0132342D01*
X0199929Y0121082D02*
X0193929Y0121082D01*
X0193929Y0111082D02*
X0199929Y0111082D01*
X0199929Y0101082D02*
X0193929Y0101082D01*
X0193929Y0091082D02*
X0199929Y0091082D01*
X0199929Y0050058D02*
X0193929Y0050058D01*
X0193929Y0040058D02*
X0199929Y0040058D01*
D21*
X0176378Y0208838D03*
X0166535Y0208838D03*
X0158661Y0208838D03*
X0148819Y0208838D03*
X0066654Y0208838D03*
X0056811Y0208838D03*
X0048937Y0208838D03*
X0039094Y0208838D03*
D22*
X0027008Y0223484D03*
X0078740Y0223484D03*
X0136732Y0223484D03*
X0188465Y0223484D03*
D23*
X0196929Y0080649D03*
X0196929Y0070649D03*
X0196929Y0060649D03*
X0107205Y0071554D03*
D24*
X0168386Y0047027D03*
D25*
X0122323Y0112804D03*
X0119173Y0112804D03*
X0116024Y0112804D03*
X0112874Y0112804D03*
X0109724Y0112804D03*
X0106575Y0112804D03*
X0103425Y0112804D03*
X0100276Y0112804D03*
X0100276Y0146604D03*
X0103425Y0146604D03*
X0106575Y0146604D03*
X0109724Y0146604D03*
X0112874Y0146604D03*
X0116024Y0146604D03*
X0119173Y0146604D03*
X0122323Y0146604D03*
D26*
X0128199Y0140728D03*
X0128199Y0137578D03*
X0128199Y0134428D03*
X0128199Y0131279D03*
X0128199Y0128129D03*
X0128199Y0124980D03*
X0128199Y0121830D03*
X0128199Y0118680D03*
X0094399Y0118680D03*
X0094399Y0121830D03*
X0094399Y0124980D03*
X0094399Y0128129D03*
X0094399Y0131279D03*
X0094399Y0134428D03*
X0094399Y0137578D03*
X0094399Y0140728D03*
D27*
X0107205Y0081554D03*
X0117205Y0081554D03*
X0117205Y0071554D03*
X0127205Y0071554D03*
X0127205Y0081554D03*
D28*
X0066102Y0083877D03*
X0066102Y0073877D03*
X0066102Y0063877D03*
X0066102Y0093877D03*
X0066102Y0103877D03*
X0066102Y0113877D03*
D29*
X0014843Y0039940D03*
X0180591Y0317696D03*
D30*
X0017417Y0188759D02*
X0012268Y0188759D01*
X0012268Y0178759D02*
X0017417Y0178759D01*
X0017417Y0168759D02*
X0012268Y0168759D01*
X0012268Y0158759D02*
X0017417Y0158759D01*
X0017417Y0148759D02*
X0012268Y0148759D01*
X0012268Y0138759D02*
X0017417Y0138759D01*
X0017417Y0122027D02*
X0012268Y0122027D01*
X0012268Y0112027D02*
X0017417Y0112027D01*
X0017417Y0102027D02*
X0012268Y0102027D01*
X0012268Y0092027D02*
X0017417Y0092027D01*
X0017417Y0082027D02*
X0012268Y0082027D01*
X0012268Y0072027D02*
X0017417Y0072027D01*
X0017417Y0062027D02*
X0012268Y0062027D01*
X0012268Y0052027D02*
X0017417Y0052027D01*
D31*
X0175866Y0127932D03*
X0175866Y0135413D03*
X0184528Y0131673D03*
D32*
X0045157Y0176358D03*
X0037677Y0176358D03*
X0041417Y0167696D03*
D33*
X0056181Y0171436D03*
X0056181Y0182460D03*
D34*
X0067008Y0171043D03*
X0064055Y0166121D03*
X0070945Y0184330D03*
X0093091Y0147913D03*
X0086693Y0143484D03*
X0072913Y0126751D03*
X0067992Y0129704D03*
X0087185Y0119369D03*
X0094399Y0090334D03*
X0094567Y0077539D03*
X0125079Y0107066D03*
X0134921Y0115925D03*
X0142795Y0115925D03*
X0142795Y0121830D03*
X0142795Y0131673D03*
X0144764Y0147421D03*
X0138858Y0147421D03*
X0132953Y0147421D03*
X0127047Y0147421D03*
X0116220Y0154310D03*
X0110315Y0158247D03*
X0141811Y0203523D03*
X0165433Y0174980D03*
X0171339Y0174980D03*
X0182165Y0173995D03*
X0184134Y0167106D03*
X0170354Y0135610D03*
X0172323Y0111003D03*
X0174291Y0106082D03*
X0189055Y0126751D03*
X0142795Y0102145D03*
X0138858Y0096239D03*
X0176260Y0055885D03*
X0181181Y0062775D03*
X0187087Y0203523D03*
X0039449Y0193188D03*
X0031083Y0159724D03*
X0031575Y0088858D03*
X0035512Y0079015D03*
M02*
