G75*
%MOIN*%
%OFA0B0*%
%FSLAX25Y25*%
%IPPOS*%
%LPD*%
%AMOC8*
5,1,8,0,0,1.08239X$1,22.5*
%
%ADD10R,0.07000X0.20000*%
%ADD11R,0.07087X0.06299*%
%ADD12R,0.06299X0.07087*%
%ADD13R,0.05512X0.05512*%
%ADD14R,0.08661X0.02362*%
%ADD15R,0.06299X0.07874*%
%ADD16R,0.03937X0.03543*%
%ADD17R,0.04331X0.03543*%
%ADD18R,0.02500X0.06000*%
%ADD19R,0.04409X0.15748*%
%ADD20R,0.02200X0.05000*%
%ADD21R,0.05000X0.02200*%
%ADD22R,0.05512X0.03937*%
%ADD23R,0.03937X0.05512*%
%ADD24R,0.07874X0.06299*%
D10*
X0096535Y0171728D03*
X0118189Y0171728D03*
X0118189Y0209728D03*
X0096535Y0209728D03*
D11*
X0080787Y0199192D03*
X0080787Y0188169D03*
X0080787Y0177539D03*
X0080787Y0166515D03*
X0134921Y0166515D03*
X0134921Y0177539D03*
X0134921Y0188169D03*
X0134921Y0199192D03*
X0129016Y0049586D03*
X0129016Y0038562D03*
D12*
X0122717Y0093287D03*
X0111693Y0093287D03*
X0065630Y0192696D03*
X0054606Y0192696D03*
X0166811Y0193680D03*
X0177835Y0193680D03*
D13*
X0114843Y0235019D03*
X0099882Y0235019D03*
D14*
X0145354Y0070275D03*
X0145354Y0065275D03*
X0145354Y0060275D03*
X0145354Y0055275D03*
X0165827Y0055275D03*
X0165827Y0060275D03*
X0165827Y0065275D03*
X0165827Y0070275D03*
D15*
X0163071Y0080491D03*
X0163071Y0093287D03*
X0163071Y0106082D03*
X0163071Y0118877D03*
X0172717Y0118877D03*
X0163071Y0131673D03*
X0163071Y0145452D03*
X0172717Y0145452D03*
X0183740Y0145452D03*
X0183740Y0118877D03*
X0152047Y0118877D03*
X0152047Y0106082D03*
X0152047Y0093287D03*
X0152047Y0080491D03*
X0152047Y0131673D03*
X0152047Y0145452D03*
D16*
X0173898Y0096830D03*
X0180591Y0096830D03*
D17*
X0177244Y0083838D03*
D18*
X0178012Y0163385D03*
X0173012Y0163385D03*
X0168012Y0163385D03*
X0163012Y0163385D03*
X0158012Y0163385D03*
X0153012Y0163385D03*
X0148012Y0163385D03*
X0143012Y0163385D03*
X0143012Y0184606D03*
X0148012Y0184606D03*
X0153012Y0184606D03*
X0158012Y0184606D03*
X0163012Y0184606D03*
X0168012Y0184606D03*
X0173012Y0184606D03*
X0178012Y0184606D03*
D19*
X0176378Y0208838D03*
X0166535Y0208838D03*
X0158661Y0208838D03*
X0148819Y0208838D03*
X0066654Y0208838D03*
X0056811Y0208838D03*
X0048937Y0208838D03*
X0039094Y0208838D03*
D20*
X0100276Y0146604D03*
X0103425Y0146604D03*
X0106575Y0146604D03*
X0109724Y0146604D03*
X0112874Y0146604D03*
X0116024Y0146604D03*
X0119173Y0146604D03*
X0122323Y0146604D03*
X0122323Y0112804D03*
X0119173Y0112804D03*
X0116024Y0112804D03*
X0112874Y0112804D03*
X0109724Y0112804D03*
X0106575Y0112804D03*
X0103425Y0112804D03*
X0100276Y0112804D03*
D21*
X0094399Y0118680D03*
X0094399Y0121830D03*
X0094399Y0124980D03*
X0094399Y0128129D03*
X0094399Y0131279D03*
X0094399Y0134428D03*
X0094399Y0137578D03*
X0094399Y0140728D03*
X0128199Y0140728D03*
X0128199Y0137578D03*
X0128199Y0134428D03*
X0128199Y0131279D03*
X0128199Y0128129D03*
X0128199Y0124980D03*
X0128199Y0121830D03*
X0128199Y0118680D03*
D22*
X0175866Y0127932D03*
X0175866Y0135413D03*
X0184528Y0131673D03*
D23*
X0045157Y0176358D03*
X0037677Y0176358D03*
X0041417Y0167696D03*
D24*
X0056181Y0171436D03*
X0056181Y0182460D03*
M02*
